<?xml version="1.0" encoding="UTF-8" standalone="no"?>
<svg width="660px" height="142px" viewBox="0 0 660 142" version="1.1" xmlns="http://www.w3.org/2000/svg" xmlns:xlink="http://www.w3.org/1999/xlink">
    <!-- Generator: Sketch 3.8.3 (29802) - http://www.bohemiancoding.com/sketch -->
    <title>angular-dart-love</title>
    <desc>Created with Sketch.</desc>
    <defs></defs>
    <g id="Page-1" stroke="none" stroke-width="1" fill="none" fill-rule="evenodd">
        <g id="angular">
            <g id="Layer_1">
                <g id="Group">
                    <polygon id="Shape" fill="#DD0031" points="66.5 0 66.5 0 66.5 0 0.636702128 23.406 10.6824468 110.1915 66.5 141 66.5 141 66.5 141 122.317553 110.1915 132.363298 23.406"></polygon>
                    <polygon id="Shape" fill="#C3002F" points="66.5 0 66.5 15.651 66.5 15.5805 66.5 86.997 66.5 86.997 66.5 141 66.5 141 122.317553 110.1915 132.363298 23.406"></polygon>
                    <path d="M66.5,15.5805 L25.3265957,107.583 L25.3265957,107.583 L40.6781915,107.583 L40.6781915,107.583 L48.9553191,86.997 L83.9031915,86.997 L92.1803191,107.583 L92.1803191,107.583 L107.531915,107.583 L107.531915,107.583 L66.5,15.5805 L66.5,15.5805 L66.5,15.5805 L66.5,15.5805 L66.5,15.5805 L66.5,15.5805 Z M78.5265957,74.307 L54.4734043,74.307 L66.5,45.4725 L78.5265957,74.307 L78.5265957,74.307 Z" id="Shape" fill="#FFFFFF"></path>
                </g>
            </g>
        </g>
        <g id="logo-no-wordmark" transform="translate(256.000000, 0.000000)">
            <g id="Layer_1">
                <g id="Group">
                    <path d="M38.5748948,38.9605263 L29.3115959,29.6842105 L29.3115959,95.3605263 L29.3115959,98.3289474 C29.3115959,99.8131579 29.6821278,101.297368 30.0526598,103.152632 L102.306391,128.755263 L120.462457,120.963158 L120.462457,120.963158 L38.5748948,38.9605263 L38.5748948,38.9605263 Z" id="Shape" fill="#00C4B3"></path>
                    <path d="M120.462457,120.963158 L102.306391,128.755263 L30.4231917,103.152632 C31.9053196,108.347368 34.8695752,114.284211 38.2043628,117.623684 L61.547876,141 L113.792882,141 L120.462457,120.963158 L120.462457,120.963158 L120.462457,120.963158 Z" id="Shape" fill="#22D3C5"></path>
                    <path d="M29.6821278,29.6842105 L1.5216992,71.9842105 C-0.701492537,74.5815789 0.41010333,79.4052632 4.11542289,83.4868421 L20.4188289,99.8131579 L30.4231917,103.523684 C30.0526598,101.668421 29.6821278,100.184211 29.6821278,98.7 L29.6821278,95.7315789 L29.6821278,29.6842105 L29.6821278,29.6842105 L29.6821278,29.6842105 Z" id="Shape" fill="#0075C9"></path>
                    <path d="M103.047455,30.7973684 C101.194795,30.4263158 99.7126674,30.0552632 98.2305396,30.0552632 L94.895752,30.0552632 L29.3115959,30.0552632 L120.462457,121.334211 L120.462457,121.334211 L128.243628,103.152632 L103.047455,30.7973684 L103.047455,30.7973684 Z" id="Shape" fill="#0075C9"></path>
                    <path d="M117.498201,38.2184211 C114.163414,34.8789474 108.234902,31.9105263 103.047455,30.4263158 L128.61416,102.781579 L120.832989,120.963158 L120.832989,120.963158 L140.471183,114.655263 L140.471183,60.8526316 L117.498201,38.2184211 L117.498201,38.2184211 Z" id="Shape" fill="#00A8E1"></path>
                    <path d="M99.7126674,20.4078947 L83.4092614,4.08157895 C79.7039418,0.371052632 74.5164945,-0.742105263 71.9227708,1.48421053 L29.6821278,29.6842105 L95.266284,29.6842105 L98.6010716,29.6842105 C100.083199,29.6842105 101.565327,30.0552632 103.417987,30.4263158 L99.7126674,20.4078947 L99.7126674,20.4078947 Z" id="Shape" fill="#00C4B3"></path>
                </g>
            </g>
        </g>
        <g id="Group-2" transform="translate(511.000000, 1.000000)" fill="#DD0031">
            <circle id="Oval-1" cx="43.5" cy="43.5" r="43.5"></circle>
            <polygon id="Triangle-1" points="8 69 141 69 74.5 139"></polygon>
            <circle id="Oval-1-Copy" cx="105.5" cy="43.5" r="43.5"></circle>
        </g>
        <text id="+" font-family="Roboto-Medium, Roboto" font-size="100" font-weight="400" fill="#000000">
            <tspan x="166.143555" y="99">+</tspan>
        </text>
        <text id="=" font-family="Roboto-Medium, Roboto" font-size="100" font-weight="400" fill="#000000">
            <tspan x="426.021484" y="99">=</tspan>
        </text>
    </g>
</svg>